<?xml version="1.0" standalone="no"?><!DOCTYPE svg PUBLIC "-//W3C//DTD SVG 1.1//EN" "http://www.w3.org/Graphics/SVG/1.1/DTD/svg11.dtd"><svg class="icon" width="200px" height="200.00px" viewBox="0 0 1024 1024" version="1.1" xmlns="http://www.w3.org/2000/svg"><path d="M512 512m-512 0a512 512 0 1 0 1024 0 512 512 0 1 0-1024 0Z" fill="#080405" /><path d="M512 358.4c-82.707692 0-153.6 66.953846-153.6 153.6 0 82.707692 66.953846 153.6 153.6 153.6 82.707692 0 153.6-66.953846 153.6-153.6 0-82.707692-70.892308-153.6-153.6-153.6z m0 252.061538c-55.138462 0-98.461538-43.323077-98.461538-98.461538s43.323077-98.461538 98.461538-98.461538 98.461538 43.323077 98.461538 98.461538-43.323077 98.461538-98.461538 98.461538zM669.538462 319.015385c-19.692308 0-35.446154 15.753846-35.446154 35.446153s15.753846 35.446154 35.446154 35.446154 35.446154-15.753846 35.446153-35.446154-15.753846-35.446154-35.446153-35.446153z" fill="#FFFFFF" /><path d="M649.846154 216.615385h-15.753846c-47.261538-3.938462-196.923077-3.938462-244.184616 0-90.584615-3.938462-169.353846 66.953846-173.292307 157.538461v15.753846c-3.938462 47.261538-3.938462 196.923077 0 244.184616-3.938462 90.584615 66.953846 169.353846 157.538461 173.292307h15.753846c47.261538 3.938462 196.923077 3.938462 244.184616 0 90.584615 3.938462 169.353846-66.953846 173.292307-157.538461v-15.753846-244.184616c3.938462-90.584615-66.953846-169.353846-157.538461-173.292307z m94.523077 468.676923c-11.815385 27.569231-31.507692 47.261538-55.138462 55.138461-114.215385 15.753846-232.369231 15.753846-350.523077 0-27.569231-11.815385-47.261538-31.507692-55.138461-55.138461-11.815385-59.076923-15.753846-118.153846-11.815385-173.292308-3.938462-59.076923 0-118.153846 11.815385-173.292308 11.815385-27.569231 31.507692-47.261538 55.138461-55.138461 114.215385-15.753846 232.369231-15.753846 350.523077 0 27.569231 11.815385 47.261538 31.507692 55.138462 55.138461 11.815385 59.076923 15.753846 118.153846 11.815384 173.292308 3.938462 59.076923 0 118.153846-11.815384 173.292308z" fill="#FFFFFF" /></svg>