<?xml version="1.0" standalone="no"?><!DOCTYPE svg PUBLIC "-//W3C//DTD SVG 1.1//EN" "http://www.w3.org/Graphics/SVG/1.1/DTD/svg11.dtd"><svg class="icon" width="200px" height="200.00px" viewBox="0 0 1024 1024" version="1.1" xmlns="http://www.w3.org/2000/svg"><path d="M751.75936 502.9376c-38.79936-7.54176-19.95264-28.3392-19.95264-28.3392s37.94944-62.5152-7.53664-108.0064c-56.30976-56.31488-193.14688 7.17312-193.14688 7.17312-52.3008 16.1792-38.43584-7.41888-31.01696-47.55456 0-47.3088-16.17408-127.46752-155.4432-80.1536-138.90048 47.55968-258.33472 214.30784-258.33472 214.30784C3.2512 571.16672 14.32064 656.79872 14.32064 656.79872c20.79744 189.00992 221.60896 240.9472 377.90208 253.23008 164.32128 12.89216 386.176-56.6784 453.43744-199.59296 67.25632-143.1552-54.98368-199.71584-93.9008-207.49824zM404.3776 856.76032c-163.2256 7.65952-295.07072-74.19904-295.07072-183.05024 0-108.9792 131.84512-196.43392 295.07072-203.9808 163.3536-7.53664 295.43936 59.7248 295.43936 168.58112-0.12288 108.73856-132.21376 211.02592-295.43936 218.44992z m-32.59392-315.264c-164.08064 19.21024-145.1008 172.9536-145.1008 172.9536s-1.70496 48.65536 44.02688 73.472c96.08704 51.92704 194.84672 20.54656 244.8384-44.032 49.8688-64.59392 20.5568-221.4912-143.76448-202.3936z m-41.35424 215.76704c-30.64832 3.65056-55.3472-13.98784-55.3472-39.64928 0-25.5488 21.89824-52.3008 52.55168-55.46496 35.1488-3.2768 58.1376 16.91136 58.1376 42.56768 0 25.4208-24.81152 49.01888-55.3472 52.54656z m96.69632-82.46784c-10.3424 7.78752-23.11168 6.69184-28.58496-2.54976-5.71392-9.12384-3.52768-23.59808 6.93248-31.2576 12.16512-9.00096 24.81152-6.4512 30.28992 2.67264 5.46816 9.24672 1.45408 23.11168-8.63744 31.13472z m404.53632-238.3872c13.2608 0 24.45312-9.856 26.3936-22.5024 0.24576-0.9728 0.36864-1.82784 0.36864-2.80064 20.0704-180.3776-147.6608-149.36064-147.6608-149.36064-14.84288 0-26.88 12.04224-26.88 27.12576a26.80832 26.80832 0 0 0 26.88 26.88c120.41216-26.63936 93.9008 93.9008 93.9008 93.9008 0 14.83264 12.03712 26.75712 26.99776 26.75712z m-19.57888-314.53696c-58.01984-13.6192-117.62176-1.82272-134.4 1.33632-1.21856 0.12288-2.43712 1.34144-3.65056 1.5872-0.6144 0.11776-0.84992 0.72704-0.84992 0.72704-16.41984 4.62336-28.58496 19.94752-28.58496 37.94944 0 21.5296 17.39264 39.16288 39.04512 39.16288 0 0 21.16096-2.79552 35.38944-8.3968 14.2336-5.71392 134.28224-4.2496 193.9968 95.96928 32.60416 73.09824 14.2336 121.99424 12.04224 129.90464 0 0-7.7824 18.9696-7.7824 37.70368 0 21.52448 17.39264 35.1488 39.04512 35.1488 17.9968 0 33.2032-2.432 37.5808-32.96256h0.24576c64.1024-213.70368-78.208-313.92256-182.07744-338.1248z" /></svg>